<?xml version="1.0" encoding="UTF-8"?>
<svg version="1.1" xmlns="http://www.w3.org/2000/svg" width="28" height="28">
<path d="M0 0 C9.24 0 18.48 0 28 0 C28 9.24 28 18.48 28 28 C18.76 28 9.52 28 0 28 C0 18.76 0 9.52 0 0 Z " fill="#F26920" transform="translate(0,0)"/>
<path d="M0 0 C9.24 0 18.48 0 28 0 C28 4.95 28 9.9 28 15 C24 13 24 13 21.875 10.875 C18.27408453 8.52657687 15.82250134 8.26110026 11.578125 8.39453125 C6.94651975 9.48225673 4.22905676 12.69506462 1 16 C0.67 16 0.34 16 0 16 C0 10.72 0 5.44 0 0 Z " fill="#EE4122" transform="translate(0,0)"/>
<path d="M0 0 C2.63736336 1.40174824 3.95242309 2.73688868 6 5 C6 5.66 6 6.32 6 7 C4.68 6.34 3.36 5.68 2 5 C1.71125 5.78375 1.4225 6.5675 1.125 7.375 C0 10 0 10 -2 12 C-7.19815668 12.55299539 -7.19815668 12.55299539 -9.8125 10.75 C-11.11258722 8.83408198 -11.60856977 7.27029534 -12 5 C-13.98 5.99 -13.98 5.99 -16 7 C-12.95968861 -0.34741919 -7.30159296 -1.26285413 0 0 Z " fill="#FCECE9" transform="translate(19,8)"/>
<path d="M0 0 C2.33944736 0.28730055 4.6739143 0.61936779 7 1 C7.04254356 2.99954746 7.04080783 5.00041636 7 7 C6 8 6 8 3 8.125 C0 8 0 8 -1 7 C-1.125 4 -1.125 4 -1 1 C-0.67 0.67 -0.34 0.34 0 0 Z " fill="#F59179" transform="translate(11,10)"/>
<path d="M0 0 C3.07644087 1.050492 4.51747584 2.37552603 6.5625 4.875 C6.5625 5.535 6.5625 6.195 6.5625 6.875 C4.5625 5.875 2.5625 4.875 0.5625 3.875 C0.2325 4.865 -0.0975 5.855 -0.4375 6.875 C-0.4375 5.555 -0.4375 4.235 -0.4375 2.875 C-2.0875 2.545 -3.7375 2.215 -5.4375 1.875 C-2.4375 -0.125 -2.4375 -0.125 0 0 Z " fill="#FBE2DE" transform="translate(18.4375,8.125)"/>
</svg>
